<svg xmlns="http://www.w3.org/2000/svg" viewBox="0 0 480 190">
  <rect width="480" height="190" fill="#F3F1EA"/>
  <line x1="80" y1="150" x2="400" y2="150" stroke="#4A3226" stroke-width="3"/>
  <g transform="translate(150 100)">
    <rect x="0" y="0" width="120" height="40" rx="6" fill="#C1502E" stroke="#4A3226" stroke-width="2.5"/>
    <rect x="84" y="-26" width="36" height="26" rx="4" fill="#A8401F" stroke="#4A3226" stroke-width="2.5"/>
    <rect x="10" y="-18" width="14" height="18" fill="#F0C24E" stroke="#4A3226" stroke-width="2"/>
    <rect x="34" y="10" width="16" height="14" rx="2" fill="#FBE3CE" stroke="#4A3226" stroke-width="2"/>
    <rect x="58" y="10" width="16" height="14" rx="2" fill="#FBE3CE" stroke="#4A3226" stroke-width="2"/>
    <circle cx="26" cy="44" r="11" fill="#2B2B2B" stroke="#4A3226" stroke-width="2.5"/>
    <circle cx="94" cy="44" r="11" fill="#2B2B2B" stroke="#4A3226" stroke-width="2.5"/>
    <circle cx="26" cy="44" r="4" fill="#BFBFBF"/>
    <circle cx="94" cy="44" r="4" fill="#BFBFBF"/>
  </g>
  <g fill="#C9C4B8">
    <circle cx="168" cy="66" r="7">
      <animate attributeName="cy" values="66;38" dur="1.8s" repeatCount="indefinite"/>
      <animate attributeName="r" values="5;9" dur="1.8s" repeatCount="indefinite"/>
      <animate attributeName="opacity" values="0.9;0" dur="1.8s" repeatCount="indefinite"/>
    </circle>
    <circle cx="178" cy="60" r="6">
      <animate attributeName="cy" values="60;32" dur="1.8s" begin="0.6s" repeatCount="indefinite"/>
      <animate attributeName="r" values="4;8" dur="1.8s" begin="0.6s" repeatCount="indefinite"/>
      <animate attributeName="opacity" values="0.9;0" dur="1.8s" begin="0.6s" repeatCount="indefinite"/>
    </circle>
  </g>
  <g transform="translate(320 116)">
    <rect x="0" y="0" width="70" height="30" rx="5" fill="#7E8464" stroke="#4A3226" stroke-width="2.5"/>
    <rect x="10" y="8" width="14" height="12" rx="2" fill="#FBE3CE" stroke="#4A3226" stroke-width="2"/>
    <rect x="32" y="8" width="14" height="12" rx="2" fill="#FBE3CE" stroke="#4A3226" stroke-width="2"/>
    <circle cx="18" cy="34" r="9" fill="#2B2B2B" stroke="#4A3226" stroke-width="2.5"/>
    <circle cx="52" cy="34" r="9" fill="#2B2B2B" stroke="#4A3226" stroke-width="2.5"/>
  </g>
</svg>
