<svg xmlns="http://www.w3.org/2000/svg" viewBox="0 0 480 190">
  <rect width="480" height="190" fill="#F3F1EA"/>
  <g transform="translate(240 108)">
    <path d="M 0,-28 C -28,-40 -62,-40 -86,-28 L -86,38 C -62,26 -28,26 0,38 C 28,26 62,26 86,38 L 86,-28 C 62,-40 28,-40 0,-28 Z" fill="#FFFDF8" stroke="#4A3226" stroke-width="2.5"/>
    <line x1="0" y1="-28" x2="0" y2="38" stroke="#4A3226" stroke-width="2"/>
    <g stroke="#C9C4B8" stroke-width="2" stroke-linecap="round">
      <line x1="-72" y1="-14" x2="-14" y2="-14"/><line x1="-72" y1="-2" x2="-14" y2="-2"/>
      <line x1="-72" y1="10" x2="-14" y2="10"/><line x1="-72" y1="22" x2="-30" y2="22"/>
      <line x1="14" y1="-14" x2="72" y2="-14"/><line x1="14" y1="-2" x2="72" y2="-2"/>
      <line x1="14" y1="10" x2="72" y2="10"/>
    </g>
  </g>
  <g transform="translate(316 122)">
    <animateTransform attributeName="transform" type="translate" values="316 122;316 116;316 122" dur="2.4s" repeatCount="indefinite" calcMode="spline" keySplines="0.45 0 0.55 1;0.45 0 0.55 1"/>
    <circle cx="0" cy="0" r="20" fill="rgba(143,216,232,0.35)" stroke="#4A3226" stroke-width="3"/>
    <line x1="14" y1="14" x2="30" y2="30" stroke="#4A3226" stroke-width="5" stroke-linecap="round"/>
  </g>
  <g fill="#C1502E">
    <path d="M 120,40 l 2.5,6 6,2.5 -6,2.5 -2.5,6 -2.5,-6 -6,-2.5 6,-2.5 Z">
      <animate attributeName="opacity" values="1;0.2;1" dur="1.8s" repeatCount="indefinite"/>
    </path>
    <path d="M 360,52 l 2,4.8 4.8,2 -4.8,2 -2,4.8 -2,-4.8 -4.8,-2 4.8,-2 Z">
      <animate attributeName="opacity" values="0.2;1;0.2" dur="1.8s" repeatCount="indefinite"/>
    </path>
  </g>
</svg>
