<svg xmlns="http://www.w3.org/2000/svg" viewBox="0 0 480 190">
  <rect width="480" height="190" fill="#F3F1EA"/>
  <rect x="150" y="35" width="180" height="120" fill="#FFFFFF" stroke="#4A3226" stroke-width="2"/>
  <g stroke="#C9C4B8" stroke-width="1">
    <line x1="180" y1="35" x2="180" y2="155"/><line x1="210" y1="35" x2="210" y2="155"/>
    <line x1="240" y1="35" x2="240" y2="155"/><line x1="270" y1="35" x2="270" y2="155"/>
    <line x1="300" y1="35" x2="300" y2="155"/>
    <line x1="150" y1="65" x2="330" y2="65"/><line x1="150" y1="95" x2="330" y2="95"/>
    <line x1="150" y1="125" x2="330" y2="125"/>
  </g>
  <g fill="#EAE7DE">
    <rect x="180" y="65" width="30" height="30"/><rect x="210" y="65" width="30" height="30"/>
    <rect x="180" y="95" width="30" height="30"/><rect x="210" y="95" width="30" height="30"/>
  </g>
  <rect x="240" y="95" width="30" height="30" fill="#C1502E" fill-opacity="0.16"/>
  <g font-family="Georgia, serif" font-size="15" font-weight="bold" text-anchor="middle">
    <text x="195" y="86" fill="#7E8464">1</text>
    <text x="225" y="86" fill="#C1502E">2</text>
    <text x="195" y="116" fill="#7E8464">1</text>
    <text x="225" y="116" fill="#C1502E">2</text>
  </g>
  <g transform="translate(255 110)">
    <circle cx="0" cy="0" r="7.5" fill="#2B2B2B"/>
    <g stroke="#2B2B2B" stroke-width="2.5" stroke-linecap="round">
      <line x1="0" y1="-8" x2="0" y2="-12"/><line x1="0" y1="8" x2="0" y2="12"/>
      <line x1="-8" y1="0" x2="-12" y2="0"/><line x1="8" y1="0" x2="12" y2="0"/>
      <line x1="-6" y1="-6" x2="-9" y2="-9"/><line x1="6" y1="6" x2="9" y2="9"/>
      <line x1="6" y1="-6" x2="9" y2="-9"/><line x1="-6" y1="6" x2="-9" y2="9"/>
    </g>
    <circle cx="-2.5" cy="-2.5" r="1.8" fill="#FFFFFF" opacity="0.8"/>
  </g>
  <g transform="translate(285 38)">
    <line x1="0" y1="4" x2="0" y2="24" stroke="#4A3226" stroke-width="2.5"/>
    <line x1="-5" y1="24" x2="5" y2="24" stroke="#4A3226" stroke-width="2.5" stroke-linecap="round"/>
    <polygon points="0,4 0,16 12,10" fill="#C1502E">
      <animate attributeName="points" values="0,4 0,16 12,10;0,4 0,16 9,8;0,4 0,16 12,10;0,4 0,16 10,12;0,4 0,16 12,10" dur="1.6s" repeatCount="indefinite"/>
    </polygon>
  </g>
</svg>
